<?xml version="1.0" encoding="utf-8"?>
<!-- Generator: Adobe Illustrator 23.1.1, SVG Export Plug-In . SVG Version: 6.00 Build 0)  -->
<svg version="1.1" id="Layer_1" xmlns="http://www.w3.org/2000/svg" xmlns:xlink="http://www.w3.org/1999/xlink" x="0px" y="0px"
	 viewBox="0 0 207.6 79.5" style="enable-background:new 0 0 207.6 79.5;" xml:space="preserve">
<style type="text/css">
	.st0{clip-path:url(#SVGID_2_);}
	.st1{fill:#7F3F98;}
	.st2{fill:#58585A;}
	.st3{fill:#7F3F98;stroke:#7F3F98;stroke-width:2;stroke-miterlimit:10;}
</style>
<title>logo</title>
<g>
	<g id="Layer_1-2">
		<g>
			<defs>
				<rect id="SVGID_1_" x="19.6" width="23.7" height="36.6"/>
			</defs>
			<clipPath id="SVGID_2_">
				<use xlink:href="#SVGID_1_"  style="overflow:visible;"/>
			</clipPath>
			<g class="st0">
				<path class="st1" d="M31.8,15.6c11.9-16.8,20.7-29-5.3,12.8c-0.4,0.6,15.8-21-1.2,6.3c-0.3,0.4-0.6,0.8-1,1.2
					c-0.5,0.5-1.2,0.8-1.9,0.8c-0.7,0-1.4-0.3-1.9-0.8c-0.5-0.5-0.8-1.2-0.8-1.9c0-0.7,0.3-1.4,0.8-1.9
					C20.9,31.5,31.3,16.2,31.8,15.6"/>
			</g>
		</g>
		<path class="st2" d="M0,46.8c0-4.2,1.9-6.5,5-6.5c0.9,0,1.8,0.2,2.7,0.6c0.8,0.4,1.5,1,2,1.8h0.1V28.1h5.3v40.7h-5v-2H10
			c-0.6,0.7-1.4,1.3-2.3,1.7C6.9,69,5.9,69.2,5,69.2c-3.1,0-5-2.4-5-6.5V46.8z M5.3,61.8c0,3.3,0.9,4.1,2.3,4.1c1.1,0,2.1-0.9,2.1-3
			V48.6c0-3.5-1-4.6-2.4-4.6c-1.2,0-2,0.8-2,3.8L5.3,61.8z"/>
		<path class="st2" d="M19,40.6h5.3v28.3H19V40.6z"/>
		<path class="st2" d="M28.8,71.5h5.3v2.2c0,1.6,0.5,2.4,2,2.4s2-0.8,2-3.2v-7H38c-1,1.6-2.8,2.5-4.7,2.4c-3.1,0-5-2.4-5-6.5v-15
			c0-4.2,1.9-6.5,5-6.5c2.4,0,3.6,0.8,5,2.9h0.1v-2.5h5v31.1c0,5-2.5,7.8-7.6,7.8c-3.8,0-6.9-1.5-6.9-5.6L28.8,71.5z M33.6,60.4
			c0,3.3,0.9,4.1,2.3,4.1c1.1,0,2.1-0.9,2.1-3V46.9c0-2-0.8-3-2.4-3c-1.2,0-2.1,0.6-2.1,2.9V60.4z"/>
		<path class="st2" d="M47.3,40.6h5.3v28.3h-5.3V40.6z"/>
		<path class="st2" d="M57.6,44.3H55v-3.7h2.7v-5.4l5.3-1.9v7.2h3.3v3.7h-3.3v18.3c0,2.1,1,2.5,2.5,2.5c0.5,0,0.9,0,1.3-0.2v3.7
			c-0.6,0.1-2,0.2-3.4,0.2c-4.2,0-5.8-1.2-5.8-3.8V44.3z"/>
		<path class="st2" d="M69,46.2c0-4.2,2.5-6.2,7.6-6.2c4.8,0,7.5,1.9,7.5,6.9v21.8h-5v-2.9c-0.6,0.6-1,1.2-1.5,1.8
			c-1,1-2.4,1.5-3.8,1.5c-3.2,0-5.2-1-5.2-7.7c0-5.7,0.4-7,1.9-8.5c1.2-1.3,2.2-1.8,8.2-1.8v-4.6c0-1.6-0.4-2.7-2.2-2.7
			c-1.5,0-2.3,0.6-2.3,2.4v2.6H69V46.2z M77.1,54.8c-2.5,0-3.2,1.3-3.2,5.8c0,4.2,0.4,4.7,2.1,4.7s2.8-1.4,2.8-3.3v-7.3H77.1z"/>
		<path class="st2" d="M88.1,28h5.3v40.8h-5.3V28z"/>
		<path class="st3" d="M109.2,48c-0.1-3.4-0.9-5.5-4.7-5.5c-3,0-4.9,1-4.9,4.3c0,4.1,2.1,4.2,5.2,6.5c3.4,2.5,7,3.2,7,8.6
			c0,5-2.6,7.4-7.4,7.4c-5.4,0-7.9-2.9-7.7-8.4h2.6c0,3.1,0.2,6.3,5.2,6.3c3.2,0,4.8-1.7,4.8-4.9c0-3.8-2.5-4.9-6.5-7.3
			c-5.4-3.3-5.6-5-5.7-7.8c0-4.8,3-6.8,7.6-6.8c5.8,0,7,3.6,7,7.6L109.2,48z"/>
		<path class="st3" d="M120.7,43h-6.8v-2.1H130V43h-6.8v25.8h-2.5L120.7,43z"/>
		<path class="st3" d="M136.1,55.3v13.5h-2.5V40.9h7.7c5.4,0,6.7,1.8,6.7,6.7c0,3.5-0.6,5.8-4.3,6.6v0.1c3.9,0.8,4.1,1.3,4.1,11.2
			c0,1.1,0.2,2.2,0.3,3.2h-2.4c-0.2-0.8-0.4-5.5-0.4-7c0-1.2,0.8-6.6-4.6-6.6L136.1,55.3z M136.1,53.2h4c3.7,0,5.4-1,5.4-5.6
			c0-3.8-1.5-4.6-4.4-4.6h-5.1L136.1,53.2z"/>
		<path class="st3" d="M163.6,40.9l8.7,27.9h-2.6l-2.2-7.3h-10.9l-2.2,7.3h-2.5l8.8-27.9L163.6,40.9z M166.8,59.4L162,43.6l0,0
			l-4.7,15.8L166.8,59.4z"/>
		<path class="st3" d="M178,43h-6.8v-2.1h16.1V43h-6.8v25.8H178V43z"/>
		<path class="st3" d="M197.6,40.9l8.7,27.9h-2.6l-2.2-7.3h-10.9l-2.2,7.3h-2.5l8.8-27.9L197.6,40.9z M200.8,59.4L196,43.6l0,0
			l-4.7,15.8L200.8,59.4z"/>
	</g>
</g>
</svg>
