<svg id="visual" viewBox="0 0 960 540" width="960" height="540" xmlns="http://www.w3.org/2000/svg" xmlns:xlink="http://www.w3.org/1999/xlink" version="1.1"><rect width="960" height="540" fill="#001829"></rect><g><g transform="translate(397 340)"><path d="M0 -89.8L77.8 -44.9L77.8 44.9L0 89.8L-77.8 44.9L-77.8 -44.9Z" fill="none" stroke="#297EA6" stroke-width="2"></path></g><g transform="translate(819 151)"><path d="M0 -65L56.3 -32.5L56.3 32.5L0 65L-56.3 32.5L-56.3 -32.5Z" fill="none" stroke="#297EA6" stroke-width="2"></path></g><g transform="translate(146 412)"><path d="M0 -86L74.5 -43L74.5 43L0 86L-74.5 43L-74.5 -43Z" stroke="#297EA6" fill="none" stroke-width="2"></path></g><g transform="translate(386 39)"><path d="M0 -71L61.5 -35.5L61.5 35.5L0 71L-61.5 35.5L-61.5 -35.5Z" stroke="#297EA6" fill="none" stroke-width="2"></path></g><g transform="translate(53 107)"><path d="M0 -81L70.1 -40.5L70.1 40.5L0 81L-70.1 40.5L-70.1 -40.5Z" stroke="#297EA6" fill="none" stroke-width="2"></path></g><g transform="translate(667 280)"><path d="M0 -54L46.8 -27L46.8 27L0 54L-46.8 27L-46.8 -27Z" stroke="#297EA6" fill="none" stroke-width="2"></path></g><g transform="translate(620 486)"><path d="M0 -58L50.2 -29L50.2 29L0 58L-50.2 29L-50.2 -29Z" stroke="#297EA6" fill="none" stroke-width="2"></path></g><g transform="translate(858 444)"><path d="M0 -79L68.4 -39.5L68.4 39.5L0 79L-68.4 39.5L-68.4 -39.5Z" stroke="#297EA6" fill="none" stroke-width="2"></path></g><g transform="translate(627 88)"><path d="M0 -69L59.8 -34.5L59.8 34.5L0 69L-59.8 34.5L-59.8 -34.5Z" stroke="#297EA6" fill="none" stroke-width="2"></path></g><g transform="translate(232 143)"><path d="M0 -70L60.6 -35L60.6 35L0 70L-60.6 35L-60.6 -35Z" stroke="#297EA6" fill="none" stroke-width="2"></path></g><g transform="translate(290 538)"><path d="M0 -68L58.9 -34L58.9 34L0 68L-58.9 34L-58.9 -34Z" stroke="#297EA6" fill="none" stroke-width="2"></path></g><g transform="translate(957 289)"><path d="M0 -34L29.4 -17L29.4 17L0 34L-29.4 17L-29.4 -17Z" stroke="#297EA6" fill="none" stroke-width="2"></path></g></g></svg>